<svg width="780" height="1024" viewBox="0 0 780 1024" fill="none" xmlns="http://www.w3.org/2000/svg">
<mask id="mask0_1964_7237" style="mask-type:alpha" maskUnits="userSpaceOnUse" x="0" y="0" width="780" height="1024">
<rect width="780" height="1024" fill="#D9D9D9"/>
</mask>
<g mask="url(#mask0_1964_7237)">
<path d="M-155.999 446.525C-109.541 399.452 -136.542 372.804 -90.0833 325.731C-43.6248 278.658 -16.6237 305.306 29.8214 258.247C76.2664 211.187 49.2787 184.525 95.7371 137.452C142.196 90.3789 169.197 117.027 215.655 69.9544C262.114 22.8813 235.112 -3.76723 281.584 -50.8538C328.056 -97.9405 355.044 -71.2783 401.502 -118.351" stroke="#6864B9" stroke-width="1.5" stroke-miterlimit="10"/>
<path d="M223.001 1254.53C269.459 1207.45 242.458 1180.8 288.917 1133.73C335.375 1086.66 362.376 1113.31 408.821 1066.25C455.266 1019.19 428.279 992.525 474.737 945.452C521.196 898.379 548.197 925.027 594.655 877.954C641.114 830.881 614.112 804.233 660.584 757.146C707.056 710.06 734.044 736.722 780.502 689.649" stroke="#6864B9" stroke-width="1.5" stroke-miterlimit="10"/>
<path d="M435.44 127.187C429.489 121.236 426.138 113.171 426.126 104.766C426.113 96.3624 429.44 88.3074 435.374 82.3735C441.308 76.4397 449.363 73.1131 457.767 73.1255C466.171 73.138 474.236 76.4884 480.187 82.4398L457.814 104.813L435.44 127.187Z" fill="#6BDBBE"/>
<path d="M101.079 835.63C107.692 840.836 111.972 848.448 112.978 856.792C113.984 865.135 111.633 873.527 106.442 880.121C101.252 886.715 93.6464 890.97 85.2998 891.951C76.9531 892.933 68.5487 890.559 61.9354 885.353L81.507 860.491L101.079 835.63Z" fill="#6BDBBE"/>
<circle cx="383" cy="988" r="10" fill="#F4D87C"/>
<circle cx="592" cy="260" r="10" fill="#F4D87C"/>
</g>
</svg>
